<?xml version="1.0" encoding="utf-8"?>
<svg version="1.1" xmlns:xlink="http://www.w3.org/1999/xlink" width="276px" height="161px" xmlns="http://www.w3.org/2000/svg">
  <g transform="matrix(1 0 0 1 -12 -67 )">
    <path d="M 12 67  L 288 67  L 288 228  L 12 228  L 12 67  " fill-rule="nonzero" fill="#cccccc" stroke="none" />
    <path d="M 23 78  L 277 78  L 277 217  L 23 217  L 23 78  " fill-rule="nonzero" fill="#ffffff" stroke="none" />
    <path d="M 167.59500000000003 115.30000000000001  C 160.83300000000003 115.30000000000001  155.52 109.98700000000001  155.52 103.22500000000001  C 155.52 96.46300000000001  160.83300000000003 91.15  167.59500000000003 91.15  C 174.35700000000003 91.15  179.67000000000002 96.46300000000001  179.67000000000002 103.22500000000001  C 179.67000000000002 109.98700000000001  174.35700000000003 115.30000000000001  167.59500000000003 115.30000000000001  " fill-rule="nonzero" fill="#cccccc" stroke="none" />
    <path d="M 27 213  L 27 140.95  L 88.5 108.19999999999999  L 174.6 167.15  L 223.8 127.85  L 273 167.15  L 273 213  L 27 213  " fill-rule="nonzero" fill="#169bd5" stroke="none" />
  </g>
</svg>