<?xml version="1.0" encoding="utf-8"?>
<svg version="1.1" xmlns:xlink="http://www.w3.org/1999/xlink" width="50px" height="43px" xmlns="http://www.w3.org/2000/svg">
  <g transform="matrix(1 0 0 1 -397 -25 )">
    <path d="M 33.73325892857143 36.729166666666664  C 35.500372023809526 36.13194444444444  37.05357142857143 35.833333333333336  38.392857142857146 35.833333333333336  L 39 35.833333333333336  L 39 17.916666666666664  L 38.392857142857146 17.916666666666664  C 37.741815476190474 17.916666666666664  37.11402529761905 17.8046875  36.509486607142854 17.580729166666664  C 35.90494791666667 17.35677083333333  35.323660714285715 17.011501736111104  34.765625 16.544921875  C 34.207589285714285 16.078342013888886  33.742559523809526 15.649088541666664  33.370535714285715 15.257161458333336  C 32.998511904761905 14.865234375  32.54278273809524 14.361328125  32.003348214285715 13.745442708333336  C 31.854538690476193 13.577473958333336  31.74293154761905 13.44683159722222  31.668526785714285 13.353515625  C 30.32924107142857 11.841796875  29.287574404761905 10.488715277777775  28.543526785714285 9.294270833333336  C 28.28311011904762 8.883680555555555  27.9296875 8.24913194444444  27.48325892857143 7.390625  C 27.464657738095244 7.334635416666665  27.367001488095244 7.124674479166665  27.19029017857143 6.7607421875  C 27.01357886904762 6.396809895833335  26.841517857142854 6.060872395833335  26.674107142857146 5.7529296875  C 26.50669642857143 5.444986979166665  26.320684523809522 5.113715277777775  26.11607142857143 4.759114583333335  C 25.911458333333336 4.404513888888885  25.711495535714285 4.119900173611105  25.516183035714285 3.9052734375  C 25.320870535714285 3.6906467013888853  25.148809523809522 3.583333333333335  25 3.583333333333335  C 23.679315476190478 3.583333333333335  22.605096726190478 3.8679470486111054  21.77734375 4.437174479166665  C 20.949590773809526 5.00640190972222  20.535714285714285 5.916232638888885  20.535714285714285 7.166666666666665  C 20.535714285714285 7.969184027777775  20.675223214285715 8.757703993055555  20.954241071428573 9.5322265625  C 21.233258928571427 10.30674913194444  21.540178571428573 10.941297743055555  21.875 11.435872395833336  C 22.209821428571427 11.930447048611105  22.516741071428573 12.443684895833336  22.795758928571427 12.9755859375  C 23.074776785714285 13.507486979166664  23.214285714285715 13.96006944444444  23.214285714285715 15  L 7.142857142857142 15  C 6.2127976190476195 14.333333333333336  5.385044642857143 14.692599826388886  4.659598214285714 15.4111328125  C 3.9341517857142856 16.129665798611104  3.571428571428571 16.964843749999996  3.571428571428571 17.916666666666664  C 3.571428571428571 18.887152777777775  3.924851190476191 19.726996527777775  4.631696428571429 20.436197916666664  C 5.338541666666668 21.145399305555554  6.175595238095239 21.5  7.142857142857142 21.5  L 16.378348214285715 21.5  C 16.099330357142858 21.81727430555555  15.86681547619048 22.26052517361111  15.680803571428573 22.82975260416667  C 15.494791666666668 23.39898003472222  15.401785714285715 23.91688368055555  15.401785714285715 24.38346354166667  C 15.401785714285715 25.67122395833333  15.894717261904765 26.78168402777777  16.880580357142858 27.71484375  C 16.545758928571427 28.31206597222222  16.378348214285715 28.95594618055555  16.378348214285715 29.646484375  C 16.378348214285715 30.33702256944444  16.54110863095238 31.02289496527777  16.866629464285715 31.7041015625  C 17.19215029761905 32.38530815972222  17.633928571428573 32.875217013888886  18.191964285714285 33.173828125  C 18.117559523809526 33.621744791666664  18.080357142857142 34.144314236111114  18.080357142857142 34.741536458333336  C 18.080357142857142 36.327907986111114  18.531436011904763 37.503689236111114  19.43359375 38.268880208333336  C 20.335751488095237 39.03407118055556  21.595982142857142 39.416666666666664  23.214285714285715 39.416666666666664  C 24.776785714285715 39.416666666666664  26.478794642857146 39.11805555555556  28.3203125 38.520833333333336  C 30.161830357142854 37.923611111111114  31.966145833333336 37.326388888888886  33.73325892857143 36.729166666666664  Z M 45.8984375 35.301432291666664  C 46.25186011904762 34.94683159722222  46.42857142857143 34.52690972222222  46.42857142857143 34.041666666666664  C 46.42857142857143 33.556423611111114  46.25186011904762 33.136501736111114  45.8984375 32.781901041666664  C 45.54501488095239 32.42730034722222  45.1264880952381 32.25  44.642857142857146 32.25  C 44.15922619047619 32.25  43.740699404761905 32.42730034722222  43.387276785714285 32.781901041666664  C 43.033854166666664 33.136501736111114  42.857142857142854 33.556423611111114  42.857142857142854 34.041666666666664  C 42.857142857142854 34.52690972222222  43.033854166666664 34.94683159722222  43.387276785714285 35.301432291666664  C 43.740699404761905 35.656032986111114  44.15922619047619 35.833333333333336  44.642857142857146 35.833333333333336  C 45.1264880952381 35.833333333333336  45.54501488095239 35.656032986111114  45.8984375 35.301432291666664  Z M 48.953683035714285 15.383138020833336  C 49.65122767857143 16.0830078125  50 16.92751736111111  50 17.916666666666664  L 50 35.833333333333336  C 50 36.822482638888886  49.65122767857143 37.6669921875  48.953683035714285 38.366861979166664  C 48.256138392857146 39.066731770833336  47.414434523809526 39.416666666666664  46.42857142857143 39.416666666666664  L 38.392857142857146 39.416666666666664  C 37.295386904761905 39.416666666666664  35.22135416666667 39.96723090277778  32.17075892857143 41.068359375  C 28.636532738095244 42.356119791666664  25.68824404761905 43  23.325892857142858 43  C 20.68452380952381 43  18.545386904761905 42.27680121527778  16.908482142857142 40.830403645833336  C 15.271577380952381 39.384006076388886  14.462425595238097 37.35438368055556  14.481026785714285 34.741536458333336  L 14.508928571428573 34.6015625  C 13.374255952380953 33.18315972222222  12.806919642857146 31.52213541666667  12.806919642857142 29.61848958333333  C 12.806919642857146 29.20789930555555  12.83482142857143 28.806640625  12.890625 28.41471354166667  C 12.276785714285717 27.35091145833333  11.932663690476193 26.24045138888889  11.858258928571429 25.08333333333333  L 7.142857142857142 25.08333333333333  C 5.189732142857143 25.08333333333333  3.5109747023809526 24.37413194444444  2.1065848214285716 22.95572916666667  C 0.7021949404761905 21.53732638888889  0 19.848307291666664  0 17.888671875  C 0 15.96636284722222  0.7068452380952381 14.29600694444444  2.1205357142857144 12.877604166666664  C 3.5342261904761902 11.459201388888886  5.208333333333334 10.75  7.142857142857142 11  L 17.578125 11  C 17.16889880952381 9.630208333333336  16.964285714285715 8.435763888888886  16.964285714285715 7.166666666666665  C 16.964285714285715 4.88975694444444  17.722284226190478 3.12608506944444  19.23828125 1.8756510416666652  C 20.75427827380953 0.6252170138888852  22.674851190476193 0  25 0  C 25.706845238095237 0  26.353236607142854 0.16330295138888518  26.939174107142854 0.4899088541666651  C 27.525111607142854 0.8165147569444402  28.0366443452381 1.2784288194444402  28.47377232142857 1.8756510416666652  C 28.91090029761905 2.4728732638888853  29.287574404761905 3.0607638888888853  29.603794642857146 3.639322916666665  C 29.920014880952383 4.21788194444444  30.264136904761905 4.88975694444444  30.636160714285715 5.654947916666665  C 31.00818452380953 6.420138888888885  31.315104166666668 6.998697916666665  31.556919642857146 7.390625  C 32.20796130952381 8.41710069444444  33.138020833333336 9.620876736111105  34.347098214285715 11.001953125  C 34.3843005952381 11.057942708333336  34.51450892857143 11.216579861111105  34.737723214285715 11.477864583333336  C 34.9609375 11.739149305555555  35.13764880952381 11.939778645833336  35.267857142857146 12.079752604166664  C 35.398065476190474 12.2197265625  35.58872767857143 12.420355902777775  35.83984375 12.681640625  C 36.09095982142857 12.94292534722222  36.314174107142854 13.15288628472222  36.509486607142854 13.3115234375  C 36.704799107142854 13.470160590277775  36.9140625 13.638129340277775  37.137276785714285 13.8154296875  C 37.36049107142857 13.99273003472222  37.57905505952381 14.123372395833336  37.79296875 14.207356770833336  C 38.00688244047619 14.291341145833336  38.20684523809524 14.333333333333336  38.392857142857146 14.333333333333336  L 46.42857142857143 14.333333333333336  C 47.414434523809526 14.333333333333336  48.256138392857146 14.683268229166664  48.953683035714285 15.383138020833336  Z " fill-rule="nonzero" fill="#000000" stroke="none" transform="matrix(1 0 0 1 397 25 )" />
  </g>
</svg>