<?xml version="1.0" standalone="no"?>
<!DOCTYPE svg PUBLIC "-//W3C//DTD SVG 20010904//EN"
 "http://www.w3.org/TR/2001/REC-SVG-20010904/DTD/svg10.dtd">
<svg version="1.0" xmlns="http://www.w3.org/2000/svg"
 width="418.000000pt" height="424.000000pt" viewBox="0 0 418.000000 424.000000"
 preserveAspectRatio="xMidYMid meet">

<g transform="translate(0.000000,424.000000) scale(0.100000,-0.100000)"
fill="#000000" stroke="none">
<path d="M1940 4154 c-743 -68 -1365 -490 -1680 -1139 -235 -484 -272 -1020
-104 -1524 156 -468 458 -847 879 -1103 157 -95 301 -158 491 -213 943 -273
1956 180 2384 1067 146 303 207 595 197 947 -14 507 -188 934 -535 1319 -134
149 -348 313 -542 416 -183 97 -431 177 -650 210 -106 16 -356 28 -440 20z
m380 -119 c649 -77 1222 -490 1502 -1083 431 -911 94 -1987 -780 -2495 -35
-21 -68 -35 -73 -32 -5 4 -9 1 -9 -5 0 -41 -545 -220 -558 -182 -6 20 -54 14
-80 -10 -23 -22 -29 -23 -230 -22 -339 1 -589 58 -866 196 -655 328 -1066 993
-1066 1725 0 526 212 1026 588 1385 78 74 242 208 255 208 3 0 32 18 65 40 83
56 260 142 366 179 152 54 279 82 471 104 80 10 303 5 415 -8z"/>
<path d="M1379 3869 c-17 -17 -20 -29 -16 -69 3 -29 1 -53 -6 -60 -7 -7 0 -5
15 4 14 9 28 13 30 7 6 -16 75 19 86 44 31 67 -57 126 -109 74z"/>
<path d="M1324 3698 l-19 -23 23 19 c21 18 27 26 19 26 -2 0 -12 -10 -23 -22z"/>
<path d="M1171 3644 c-18 -17 -36 -44 -40 -65 -7 -32 -5 -39 25 -67 43 -41 89
-43 133 -6 60 51 30 148 -50 160 -30 5 -42 1 -68 -22z"/>
<path d="M1290 3661 c0 -6 5 -13 10 -16 6 -3 10 1 10 9 0 9 -4 16 -10 16 -5 0
-10 -4 -10 -9z"/>
<path d="M902 3561 c-23 -4 -48 -13 -54 -19 -9 -9 -15 -9 -27 1 -12 10 -13 9
-6 -2 5 -8 8 -33 6 -56 -1 -33 4 -47 25 -68 15 -15 32 -27 38 -27 6 0 4 -5 -4
-10 -9 -6 -10 -10 -3 -10 6 0 14 4 17 9 3 4 19 11 35 14 20 4 35 17 46 36 21
42 19 74 -9 104 -13 14 -21 28 -18 31 3 3 3 5 1 5 -2 -1 -23 -5 -47 -8z"/>
<path d="M1488 3413 c-20 -5 -19 -53 2 -78 17 -20 53 -19 73 3 42 47 -5 94
-75 75z"/>
<path d="M996 3334 c-13 -33 -5 -71 18 -93 23 -21 26 -22 54 -7 46 24 55 63
22 96 -25 25 -85 27 -94 4z"/>
<path d="M804 3306 c-87 -38 -85 -146 2 -182 29 -12 39 -12 68 0 69 29 88 102
39 155 -34 37 -68 45 -109 27z"/>
<path d="M1012 3180 c-27 -26 -28 -56 -2 -70 47 -25 82 37 42 73 -17 16 -20
15 -40 -3z"/>
<path d="M2033 2810 c-25 -10 -47 -45 -38 -60 9 -14 53 -12 57 2 3 9 15 9 47
0 27 -6 53 -7 67 -2 22 9 44 38 44 59 0 15 -57 14 -62 -1 -3 -9 -12 -9 -38 0
-38 14 -47 14 -77 2z"/>
<path d="M2321 2720 c-63 -15 -66 -22 -69 -212 -4 -185 3 -218 44 -237 57 -25
163 -5 178 34 3 9 6 94 6 189 0 193 -4 208 -68 226 -41 11 -44 11 -91 0z m59
-230 c0 -144 -2 -170 -15 -170 -13 0 -15 26 -15 170 0 144 2 170 15 170 13 0
15 -26 15 -170z"/>
<path d="M1130 2489 l0 -231 84 3 c73 4 88 7 110 28 l26 24 0 184 0 183 -32
20 c-25 15 -51 20 -110 20 l-78 0 0 -231z m125 1 c0 -122 -3 -164 -12 -167
-10 -4 -13 34 -13 167 0 133 3 171 13 168 9 -4 12 -46 12 -168z"/>
<path d="M1380 2489 l0 -230 48 3 47 3 3 228 2 227 -50 0 -50 0 0 -231z"/>
<path d="M1529 2701 c-21 -17 -24 -28 -24 -84 l0 -65 63 -66 c61 -64 63 -67
60 -113 -2 -35 -7 -48 -18 -48 -11 0 -16 14 -18 58 l-3 57 -44 0 -45 0 0 -52
c0 -29 3 -63 6 -76 9 -31 53 -52 108 -52 88 0 116 30 116 125 0 54 -2 57 -65
126 -57 62 -65 75 -65 110 0 28 4 39 15 39 11 0 15 -12 15 -45 l0 -45 45 0 45
0 0 55 c0 77 -19 95 -104 95 -48 0 -70 -5 -87 -19z"/>
<path d="M1760 2490 l0 -231 93 3 c91 3 92 3 92 28 0 23 -4 25 -48 28 l-48 3
3 82 3 82 40 1 c36 0 40 3 43 27 3 26 1 27 -42 27 l-46 0 0 59 0 60 48 3 c43
3 47 5 50 31 l3 27 -95 0 -96 0 0 -230z"/>
<path d="M1972 2493 l3 -228 38 -3 37 -3 0 117 c0 65 3 114 8 110 4 -4 21 -55
37 -114 l30 -107 50 0 50 0 3 228 2 227 -40 0 -40 0 0 -96 c0 -52 -4 -93 -9
-90 -4 3 -19 46 -31 96 l-24 90 -58 0 -58 0 2 -227z"/>
<path d="M2622 2494 l3 -229 69 -3 c38 -2 82 2 98 9 54 22 58 38 58 221 0 162
-1 168 -24 195 -23 26 -30 28 -115 32 l-91 3 2 -228z m126 -1 c-2 -122 -6
-167 -15 -171 -10 -3 -13 35 -13 167 0 147 2 171 15 171 13 0 15 -23 13 -167z"/>
<path d="M2880 2490 l0 -231 93 3 92 3 3 28 c3 26 2 27 -48 27 l-51 0 3 83 3
82 40 0 c36 0 40 3 43 28 3 26 2 27 -42 27 l-46 0 0 59 0 60 48 3 c43 3 47 5
50 31 l3 27 -95 0 -96 0 0 -230z"/>
<path d="M947 1923 c-4 -3 -7 -107 -7 -230 l0 -223 50 0 50 0 0 230 0 230 -43
0 c-24 0 -47 -3 -50 -7z"/>
<path d="M1070 1700 l0 -230 40 0 40 0 1 118 1 117 23 -75 c13 -41 29 -94 35
-117 l11 -43 49 0 50 0 0 231 0 230 -37 -3 -38 -3 -5 -100 -5 -100 -13 50 c-7
28 -20 74 -28 103 l-15 52 -55 0 -54 0 0 -230z"/>
<path d="M1344 1915 c-10 -25 4 -45 31 -45 l25 0 0 -200 0 -200 50 0 50 0 0
199 0 200 28 3 c21 2 27 8 27 28 0 25 -1 25 -103 28 -85 2 -103 0 -108 -13z"/>
<path d="M1587 1923 c-4 -3 -7 -107 -7 -230 l0 -223 95 0 c95 0 95 0 95 25 0
23 -4 25 -45 25 l-45 0 0 85 0 85 40 0 c36 0 40 3 40 25 0 23 -4 25 -40 25
l-40 0 0 65 0 65 45 0 c43 0 45 1 45 30 l0 30 -88 0 c-49 0 -92 -3 -95 -7z"/>
<path d="M1800 1700 l0 -230 50 0 50 0 0 111 c0 84 3 110 13 107 8 -3 14 -39
18 -109 4 -57 7 -105 8 -106 0 -2 24 -3 52 -3 29 0 48 4 44 9 -3 6 -6 47 -7
93 -1 96 -9 124 -38 133 -20 6 -19 8 10 35 25 23 30 36 30 75 0 25 -5 55 -11
67 -16 30 -71 48 -149 48 l-70 0 0 -230z m125 105 c0 -38 -4 -60 -12 -62 -10
-4 -13 13 -13 62 0 49 3 66 13 63 8 -3 12 -25 12 -63z"/>
<path d="M2060 1700 l0 -230 50 0 50 0 0 110 0 110 40 0 c36 0 40 3 40 25 0
23 -4 25 -40 25 l-40 0 0 64 0 65 43 3 c37 3 42 6 42 28 0 25 -1 25 -92 28
l-93 3 0 -231z"/>
<path d="M2336 1918 c-2 -7 -18 -103 -36 -213 -17 -110 -33 -208 -36 -217 -5
-16 2 -18 45 -18 l50 0 6 48 c9 67 12 72 38 72 22 0 25 -5 31 -60 l7 -60 50 0
c46 0 49 1 44 23 -3 12 -18 105 -35 207 -17 102 -32 195 -35 208 -5 20 -11 22
-66 22 -39 0 -61 -4 -63 -12z m75 -213 c2 -34 -1 -50 -9 -50 -7 0 -12 3 -12 8
0 4 0 30 0 59 0 66 17 52 21 -17z"/>
<path d="M2604 1918 c-38 -18 -44 -51 -44 -227 0 -146 2 -172 18 -190 23 -29
86 -43 135 -30 52 14 69 44 65 116 l-3 58 -42 3 -42 3 -3 -63 c-2 -36 -7 -62
-13 -61 -6 2 -11 70 -13 173 -2 147 0 170 13 170 11 0 15 -12 15 -50 l0 -50
46 0 46 0 -4 61 c-6 79 -27 99 -102 98 -28 0 -61 -5 -72 -11z"/>
<path d="M2808 1923 c-2 -4 -2 -108 0 -230 l3 -223 94 0 c94 0 95 0 95 24 0
23 -5 25 -47 28 l-48 3 -3 83 -3 82 46 0 c41 0 45 2 45 24 0 22 -5 25 -42 28
l-43 3 -3 62 -3 62 48 3 c44 3 48 5 48 28 0 25 -1 25 -92 28 -50 1 -93 -1 -95
-5z"/>
<path d="M3049 1901 c-24 -24 -29 -38 -29 -76 0 -58 9 -76 76 -147 49 -51 54
-61 54 -102 0 -39 -3 -46 -20 -46 -18 0 -20 7 -20 61 l0 60 -42 -3 -43 -3 -3
-61 c-2 -47 1 -66 15 -83 37 -46 158 -46 196 0 20 25 24 117 6 152 -6 12 -35
47 -64 77 -52 54 -71 94 -59 124 3 9 12 16 20 16 10 0 14 -14 14 -50 l0 -50
45 0 45 0 0 55 c0 78 -27 105 -105 105 -49 0 -60 -4 -86 -29z"/>
<path d="M3094 845 c-14 -37 26 -69 53 -42 22 22 8 57 -23 57 -14 0 -27 -7
-30 -15z"/>
<path d="M2836 789 c-55 -43 -12 -128 58 -113 39 8 37 5 43 52 5 34 2 42 -22
60 -34 27 -45 27 -79 1z"/>
<path d="M2964 663 c-15 -3 -25 -15 -31 -42 -11 -43 -4 -69 30 -103 24 -24 24
-24 65 -7 64 27 81 82 41 133 -20 26 -46 31 -105 19z"/>
<path d="M2437 390 c-14 -11 -29 -29 -32 -40 -9 -28 20 -77 50 -84 28 -7 85
17 85 37 0 8 4 7 11 -3 8 -12 9 -9 4 10 -14 54 -27 78 -51 89 -33 15 -37 14
-67 -9z"/>
</g>
</svg>
